<svg xmlns="http://www.w3.org/2000/svg" xmlns:xlink="http://www.w3.org/1999/xlink" width="31" height="48" viewBox="0 0 31 48" fill="none"><defs><linearGradient id="linear_0" x1="0%" y1="50%" x2="100%" y2="50%" gradientUnits="objectBoundingBox"><stop offset="0" stop-color="#103C74" stop-opacity="0" /><stop offset="0.2569" stop-color="#103B73" stop-opacity="0.6" /></linearGradient></defs><path id="文本 2" fill-rule="evenodd" fill="url(#linear_0)" transform="translate(-8.5059814453125 8.504003906249977)  rotate(90 24 15.49600000000002)" opacity="1" d="M0 25.48L10.01 19.49L16.37 15.63L16.37 15.36L10.01 11.5L0 5.44L0 0L20.36 13.02L20.36 17.98L0 30.99L0 25.48ZM34.18 17.98L34.18 13.02L13.82 0L13.82 5.44L23.83 11.5L30.19 15.36L30.19 15.63L23.83 19.49L13.82 25.48L13.82 30.99L34.18 17.98ZM37.65 19.49L44.01 15.63L44.01 15.36L37.65 11.5L27.64 5.44L27.64 0L48 13.02L48 17.98L27.64 30.99L27.64 25.48L37.65 19.49Z" /></svg>