<?xml version="1.0" encoding="utf-8"?>
<!-- Generator: Adobe Illustrator 19.0.0, SVG Export Plug-In . SVG Version: 6.00 Build 0)  -->
<svg version="1.1" id="Layer_1" xmlns="http://www.w3.org/2000/svg" xmlns:xlink="http://www.w3.org/1999/xlink" x="0px" y="0px"
	 viewBox="0 0 760 480.8" style="enable-background:new 0 0 760 480.8;" xml:space="preserve">
<style type="text/css">
	.st0{fill:#96C950;}
	.st1{fill:#28ABE2;}
</style>
<path id="XMLID_15_" class="st0" d="M430.5,279.6c0.1-2,0.2-4,0.2-6c0-73.5,0-147,0.1-220.5c0-4.9-1.2-6.1-6.1-6
	c-13.2,0.4-26.3,0-39.5,0.2c-3.2,0-4.7-0.5-4.7-4.2c0.2-13,0.2-26,0-39c-0.1-3.5,1.3-4,4.3-4c68,0.1,136-0.3,204,0.4
	c33.4,0.4,66.5,4.6,97.6,17.8c41.9,17.8,64.8,50,71.2,94.6c3.8,26.5,3.2,52.8-3.6,78.8c-10.7,40.2-36.8,66.1-75.4,80.3
	c-23.5,8.6-47.9,12.4-72.7,14.1c-35,2.3-70,0.8-104.9,1.1c-4.4,0-5.6,1.1-5.6,5.5c0.2,45.2,0.2,90.3,0,135.5c0,4.3,1.3,5.3,5.4,5.2
	c13.5-0.2,27,0,40.5-0.2c3.5-0.1,4.5,1,4.5,4.5c-0.2,12.8-0.2,25.7,0,38.5c0.1,4-1.5,4.7-4.9,4.7c-52.2-0.1-104.3-0.1-156.5,0
	c-3.6,0-5-0.7-4.9-4.6c0.3-12.8,0.2-25.7,0-38.5c0-3.4,0.9-4.6,4.5-4.5c13,0.1,26-0.1,39-0.1c7.8,0.6,7.8,0.6,7.8-7.2
	c0-37.1,0-74.2,0-111.3C430.7,302.9,430.5,291.2,430.5,279.6z M495.5,144.1c0,30.3,0.1,60.6-0.1,91c0,3.7,0.6,5.2,4.8,5.1
	c25.3-0.2,50.6,0.1,76-0.2c16.6-0.1,33.2-1.3,49.6-5c30.7-7,52.4-24.2,60.5-55.5c6.3-24.3,6.2-48.8-0.1-73.1
	c-6.5-24.8-22-41.7-46.2-50.4c-19.1-6.9-39-8.3-59-8.7c-26.8-0.5-53.6,0-80.5-0.2c-4,0-5,1.1-5,5
	C495.6,82.8,495.5,113.5,495.5,144.1z"/>
<path id="XMLID_12_" class="st1" d="M432.5,279.6c0.1,11.6,0.2,23.3,0.2,34.9c0,37.1,0,74.2,0,111.3c0,7.8,0,7.8-7.8,7.2
	c-10-24.5-20-49-30-73.4c-9.3-22.8-18.8-45.5-28-68.3c-1.2-3-2.5-4.3-6-4.3c-59.2,0.1-118.3,0.1-177.5,0c-3.4,0-4.8,1.2-6.1,4.2
	c-19.5,46.3-39.1,92.5-58.6,138.8c-2.2,5.3-2.2,5.3,3.7,5.3c13.3,0,26.7,0.1,40-0.1c3.5-0.1,4.5,1,4.5,4.5
	c-0.2,12.2-0.2,24.3,0,36.5c0,3.3-0.6,4.6-4.3,4.6c-52.7-0.1-105.3-0.1-158,0c-3.4,0-4.7-0.8-4.6-4.5c0.2-12.8,0.2-25.7,0-38.5
	c-0.1-3.9,1.3-4.7,4.9-4.6c14.7,0.2,29.3,0,44,0.2c3.2,0,4.6-1,5.8-3.9c53.9-126.9,107.9-253.7,161.8-380.6c6.4-15,12.8-30,19.1-45
	c1.2-2.9,2.7-3.8,5.9-3.8c22.8,0.1,45.7,0.2,68.5,0c3.8,0,5.4,1.3,6.8,4.7c37.9,90.5,75.9,180.9,114,271.3
	C431.2,277.3,431.9,278.4,432.5,279.6z M345.4,239.8c-24.2-58.8-48.2-117.2-72.6-176.5c-0.9,1.9-1.3,2.6-1.6,3.3
	c-23.5,56.3-47,112.6-70.6,168.9c-1.7,4.1-0.6,4.6,3.3,4.6c45.6-0.1,91.3-0.1,136.9-0.1C342.2,240,343.4,239.9,345.4,239.8z"/>
</svg>
