<svg width="499.99999999999994" height="499.99999999999994" xmlns="http://www.w3.org/2000/svg" xml:space="preserve" enable-background="new 0 0 500 500" version="1.1">

 <g>
  <title>Layer 1</title>
  <g stroke="null" id="svg_31">
   <path stroke="null" id="svg_1" d="m112.62231,41.01311c27.97291,-17.23717 56.88192,-31.12106 88.90637,-36.43056c100.9216,-16.73232 184.67842,14.01948 247.45696,95.35383c64.71622,83.84473 67.67962,200.56668 8.45537,288.41565c-42.44048,62.95318 -102.14373,99.9019 -177.42318,109.37835c-110.90984,13.96175 -218.38282,-47.93644 -259.67358,-152.52316c-37.95928,-96.14837 -22.08543,-185.31828 46.2446,-263.5113c13.25263,-15.16556 30.25662,-27.03331 46.03346,-40.68281m76.45213,80.76566c0.04853,0.27607 0.09704,0.55216 -0.35001,1.87572c-0.8725,3.78605 -1.74497,7.57209 -2.81711,12.23268c-0.04961,0.58964 -0.0992,1.17928 -0.1125,3.0874c1.57882,3.51542 3.15762,7.03081 4.17529,11.52254c-0.80364,1.67557 -1.60727,3.35118 -3.29284,5.5607c-2.33634,2.50182 -3.16897,4.72519 1.05324,6.99645c0.51165,1.13569 1.02332,2.2714 1.77283,4.49653c6.5189,7.21569 15.09062,5.4908 23.29723,5.39953c7.07137,-0.07866 11.91118,-3.04697 13.86895,-11.3655c-0.6141,-2.02383 -1.22823,-4.04764 -1.59042,-7.09698c-0.56878,-1.98136 -1.13754,-3.96273 -0.98295,-6.92008c0.84547,-2.59841 1.69096,-5.19682 3.14091,-8.72594c-0.2831,-3.36293 -0.56621,-6.72589 -0.81111,-11.08335c-0.96815,-1.7379 -1.9363,-3.47576 -2.49642,-6.24889c0.39049,-1.76292 0.78097,-3.5258 1.7284,-6.22441c-0.3071,-2.22907 -0.61418,-4.45816 -0.65943,-7.85418c-1.47881,-2.26261 -2.45226,-5.30416 -4.52243,-6.65527c-9.86158,-6.43619 -29.03783,-1.29169 -35.41902,9.64476c0.27603,1.48411 0.55207,2.96819 0.95988,5.44844c0.98541,1.69169 1.97081,3.38335 3.05752,5.90987m45.27489,258.24373c1.95625,0 3.91252,0 6.04358,0c0,-22.47821 0,-44.20632 0.21833,-67.38727c0,-21.3646 0,-42.7292 0,-64.58651c12.59966,0 24.29828,-0.32313 35.973,0.06991c21.63068,0.72831 43.01051,2.51922 57.66101,21.93437c0,-16.49592 0,-32.46047 0,-47.90281c-26.32284,28.87831 -60.89103,19.30946 -92.97105,21.73284c0,-42.26055 0,-83.39887 0,-124.48475c47.59997,-1.84073 92.7396,2.81021 129.11856,38.17906c0,-15.0588 0,-28.77589 0,-42.15513c-44.56287,0 -88.48268,0 -132.97932,0c0,28.27521 0,55.90614 0,84.37939c-12.1543,0 -23.74265,0 -34.59951,0c-3.00168,8.99301 0.61789,14.8235 6.15689,20.38442c6.36169,6.38688 12.15106,13.34721 18.26336,20.14105c-7.63677,6.98308 -14.70578,13.18661 -21.41939,19.75553c-1.8489,1.80911 -3.7082,4.69547 -3.73811,7.11032c-0.19437,15.68113 0.11504,31.3685 0.01727,47.99391c0.1037,0.63399 0.20743,1.26796 -0.11474,3.33888c0,20.3943 0,40.78855 0,61.33426c7.13681,0 13.32026,0 20.92924,0.21656c3.34945,-0.04985 6.69889,-0.09966 11.44089,-0.05401m-90.43885,-34.64335c3.10754,-2.14327 7.70728,-3.64729 8.95864,-6.58575c1.70361,-4.00053 0.85119,-9.09611 1.1008,-13.83611c5.48577,-0.46714 11.57284,-0.98554 17.6599,-1.50393c-0.11809,-0.90123 -0.23618,-1.8024 -0.35427,-2.70363c-13.78436,0 -27.5687,0 -41.09236,0c0,2.75909 0.47967,5.24209 -0.08162,7.46012c-2.67126,10.55594 1.09448,15.86984 13.80891,17.16931m5.75155,-114.50824c-1.59075,2.54366 -3.1815,5.08732 -5.93118,9.48408c9.00211,-3.40837 11.93578,-8.31421 10.64033,-15.00102c-1.22178,-6.30641 -5.68302,-9.95341 -12.20393,-10.10193c-6.47394,-0.14742 -11.21374,3.07368 -12.65746,9.43888c-1.45733,6.42517 0.4665,11.77394 8.33934,14.79597c-1.40296,-7.37064 -10.61828,-16.38076 3.05499,-19.41911c6.3216,-1.40475 9.40917,3.14655 8.75791,10.80313m3.96532,53.43162c0.12937,-0.73573 0.25876,-1.47148 0.38813,-2.20726c-7.03636,0.17318 -14.50267,-1.05389 -20.97811,0.94615c-5.54769,1.71349 -4.20834,7.87752 -2.28116,12.8929c0.57886,1.50648 -0.49269,3.65097 -0.69002,4.80959c8.4201,0 16.28976,0 24.15941,0c0.00631,-0.72503 0.01259,-1.45011 0.0189,-2.17512c-4.72479,-0.44578 -9.71091,-0.12272 -14.07945,-1.61653c-2.76022,-0.94379 -4.59827,-4.60046 -6.84991,-7.04038c2.48436,-1.5996 4.79053,-3.99772 7.49632,-4.60503c3.72576,-0.83637 7.75356,-0.31913 12.81589,-1.00432m16.25069,-22.77918c4.36551,-4.99912 -0.48691,-4.11489 -2.83857,-4.15702c-8.85499,-0.15867 -17.71488,-0.11617 -26.57201,-0.04147c-3.64547,0.03074 -7.28862,0.33411 -11.45648,0.53927c0.78988,1.8813 1.05708,3.13056 1.35451,3.1379c12.7181,0.31064 25.43891,0.51081 39.51256,0.52132z" fill="#014BAD"/>
   <path stroke="null" id="svg_2" d="m221.48292,379.85995c-6.18346,0 -12.36691,0 -19.50373,0c0,-20.54571 0,-40.93996 0.43561,-62.29697c0.2642,-1.7472 0.09278,-2.53171 -0.07866,-3.31622c-0.14445,-15.68535 -0.45385,-31.37273 -0.25948,-47.05385c0.02991,-2.41485 1.88921,-5.30121 3.73811,-7.11032c6.71361,-6.56891 13.78262,-12.77245 21.41939,-19.75553c-6.11231,-6.79383 -11.90168,-13.75417 -18.26336,-20.14105c-5.539,-5.56092 -9.15857,-11.3914 -6.15689,-20.38442c10.85686,0 22.44521,0 34.59951,0c0,-28.47325 0,-56.10418 0,-84.37939c44.49664,0 88.41646,0 132.97932,0c0,13.37924 0,27.09632 0,42.15513c-36.37896,-35.36885 -81.51859,-40.01979 -129.11856,-38.17906c0,41.08589 0,82.2242 0,124.48475c32.08003,-2.42338 66.64822,7.14547 92.97105,-21.73284c0,15.44234 0,31.40689 0,47.90281c-14.6505,-19.41515 -36.03033,-21.20606 -57.66101,-21.93437c-11.67472,-0.39304 -23.37333,-0.06991 -35.973,-0.06991c0,21.85731 0,43.22191 -0.56452,65.35232c-0.85906,0.84429 -1.15358,0.92271 -1.94089,0.74675c-2.09614,-3.16887 -3.5454,-6.18426 -5.35461,-8.96397c-1.29804,-1.99437 -2.77262,-4.74623 -4.69798,-5.29659c-6.32761,-1.80888 -9.94233,3.79205 -8.47723,13.25052c-2.79076,0.35374 -5.57009,0.70601 -8.93449,1.04474c-1.64448,1.12594 -2.70389,2.2655 -3.76332,3.40499c1.40323,-0.15218 2.80643,-0.30438 4.87725,-0.39012c3.69873,0.06649 6.72985,0.06649 9.76095,0.06649c0.24437,0.50372 0.48876,1.0075 0.73313,1.5112c-1.59487,1.08755 -3.18974,2.17504 -5.31388,3.24115c-2.13147,-0.14288 -3.73365,-0.26439 -5.63619,-0.40862c3.04158,5.34457 3.04158,5.34457 8.21194,2.11445c3.10477,0.60381 5.57211,1.38847 6.94714,1.82571c-2.77375,6.66732 -5.19691,12.01616 -7.1492,17.53266c-0.46463,1.31293 0.51167,3.23407 1.06201,4.79125c0.86614,2.45055 3.00918,4.97415 2.71046,7.21155c-0.8481,6.3526 -2.92628,12.53369 -3.92039,18.87695c-0.28213,1.8001 1.49097,3.92428 2.32151,5.89982z" fill="#F8FAFD"/>
   <path stroke="null" id="svg_3" d="m222.19568,379.96824c-1.5433,-2.08382 -3.31639,-4.208 -3.03427,-6.0081c0.99411,-6.34326 3.07229,-12.52435 3.92039,-18.87695c0.29873,-2.2374 -1.84431,-4.761 -2.71046,-7.21155c-0.55035,-1.55718 -1.52664,-3.47832 -1.06201,-4.79125c1.95229,-5.5165 4.37545,-10.86534 7.1492,-17.53266c-1.37504,-0.43724 -3.84238,-1.22191 -7.37932,-1.96371c-1.25117,-0.48695 -1.43271,-1.01665 -1.6143,-1.5464c1.59487,-1.08754 3.18974,-2.17503 4.78461,-3.26258c-0.24437,-0.50371 -0.48876,-1.00748 -0.73313,-1.5112c-3.03111,0 -6.06223,0 -9.80051,-0.5575c-0.63457,-1.20848 -0.56195,-1.8594 -0.48934,-2.51033c2.77937,-0.35225 5.5587,-0.70452 8.34946,-1.05826c-1.4651,-9.45848 2.14962,-15.0594 8.47723,-13.25052c1.92535,0.55036 3.39994,3.30222 4.69798,5.29659c1.8092,2.77971 3.25847,5.7951 5.56757,9.60325c-1.28238,14.62202 -3.19351,28.36274 -5.36544,42.06192c-0.24551,1.54851 -1.93602,2.8819 -2.99974,4.28192c-5.48488,7.21907 -4.44075,13.78962 3.00318,18.79617c-3.34945,0.04979 -6.69889,0.0996 -10.7611,0.04117z" fill="#090909"/>
   <path stroke="null" id="svg_4" d="m233.65306,379.9748c-8.14021,-5.05429 -9.18435,-11.62483 -3.69946,-18.8439c1.06372,-1.40002 2.75422,-2.73341 2.99974,-4.28192c2.17193,-13.69918 4.08307,-27.43991 5.85829,-41.80754c0.08151,-0.71769 0.37602,-0.79612 1.12591,-0.91398c0.45537,21.68872 0.45537,43.41683 0.45537,65.89504c-2.13106,0 -4.08733,0 -6.73984,-0.0477z" fill="#E3E9F1"/>
   <path stroke="null" id="svg_5" d="m143.28832,345.42415c-12.09229,-1.34446 -15.85802,-6.65836 -13.18676,-17.2143c0.56129,-2.21803 0.08162,-4.70103 0.08162,-7.46012c13.52367,0 27.30801,0 41.09236,0c0.11809,0.90123 0.23618,1.8024 0.35427,2.70363c-6.08706,0.51839 -12.17412,1.03679 -17.6599,1.50393c-0.24962,4.74 0.60281,9.83558 -1.1008,13.83611c-1.25136,2.93846 -5.8511,4.44248 -9.58079,6.63075m4.25473,-18.80921c-4.53418,-3.01102 -9.3113,-3.14624 -12.34887,1.40902c-1.48224,2.22284 -1.68562,7.20341 -0.17562,9.04799c1.84702,2.25634 6.23404,3.74705 9.27968,3.40321c5.63955,-0.63673 6.95461,-5.73406 3.24481,-13.86022z" fill="#EAF0F8"/>
   <path stroke="null" id="svg_6" d="m185.80261,109.72208c5.63561,-10.23807 24.81186,-15.38258 34.67344,-8.94638c2.07017,1.35111 3.04362,4.39266 3.76589,7.24494c-13.23185,3.87925 -25.77233,4.94709 -38.43933,1.70144z" fill="#6799CB"/>
   <path stroke="null" id="svg_7" d="m223.37276,148.54373c0.56878,1.98136 1.13754,3.96273 1.09222,6.76352c-12.81011,6.6005 -24.91368,6.78389 -36.90579,0.21661c0.80363,-1.67557 1.60726,-3.35118 3.18877,-5.69956c11.39353,-0.8754 22.00915,-1.07799 32.6248,-1.28057z" fill="#DF4C33"/>
   <path stroke="null" id="svg_8" d="m186.10696,135.01266c0.8725,-3.78608 1.74497,-7.57212 3.46208,-11.89806c11.88523,4.6519 22.92103,4.46948 33.95245,-0.56979c0.96815,1.73788 1.9363,3.47575 2.34269,5.71621c-4.80025,2.0956 -9.03876,3.68863 -13.27706,5.60744c0.00016,0.32575 -0.01984,0.97696 -0.54433,1.02143c-1.22516,0.0835 -1.92584,0.12251 -2.98837,0.16398c-0.36183,0.00245 -1.08679,-0.00437 -1.58533,-0.20795c-2.22691,-0.5466 -3.95528,-0.8896 -6.21732,-1.27487c-1.24473,-0.06152 -1.95581,-0.08081 -3.23056,-0.10296c-2.8656,1.17238 -5.16746,2.34761 -7.90822,3.28636c-1.62793,-0.73829 -2.81699,-1.24005 -4.00602,-1.74178z" fill="#EBEDF0"/>
   <path stroke="null" id="svg_9" d="m149.81387,230.25891c0.49941,-7.04457 -2.58817,-11.59587 -8.90977,-10.19113c-13.67327,3.03835 -4.45795,12.04847 -3.05499,19.41911c-7.87284,-3.02203 -9.79667,-8.3708 -8.33934,-14.79597c1.44372,-6.3652 6.18353,-9.5863 12.65746,-9.43888c6.5209,0.14852 10.98215,3.79552 12.20393,10.10193c1.29545,6.68681 -1.63822,11.59265 -10.64033,15.00102c2.74968,-4.39676 4.34043,-6.94042 6.08304,-10.09608z" fill="#E3E9F1"/>
   <path stroke="null" id="svg_10" d="m153.04538,284.6138c-4.48037,0.37393 -8.50817,-0.14332 -12.23393,0.69305c-2.70579,0.60731 -5.01196,3.00543 -7.49632,4.60503c2.25164,2.43992 4.08969,6.09659 6.84991,7.04038c4.36854,1.49382 9.35466,1.17075 14.07945,1.61653c-0.00631,0.72501 -0.01259,1.45009 -0.0189,2.17512c-7.86965,0 -15.73931,0 -24.15941,0c0.19733,-1.15862 1.26888,-3.30312 0.69002,-4.80959c-1.92719,-5.01538 -3.26653,-11.17941 2.28116,-12.8929c6.47544,-2.00004 13.94175,-0.77297 20.97811,-0.94615c-0.12937,0.73577 -0.25876,1.47153 -0.97009,2.51853z" fill="#F3F5F9"/>
   <path stroke="null" id="svg_11" d="m185.42981,110.07127c13.0398,2.89646 25.58028,1.82862 38.68123,-1.46718c0.9327,2.2229 1.23977,4.45199 0.6433,7.08407c-4.16666,1.06456 -7.42979,1.72613 -11.38082,2.31792c-9.62141,-1.09094 -18.5549,-2.11212 -27.48841,-3.13333c-0.27602,-1.48411 -0.55205,-2.96819 -0.45531,-4.80149z" fill="#D3D5D9"/>
   <path stroke="null" id="svg_12" d="m223.73445,148.05573c-10.97734,0.69059 -21.59296,0.89317 -32.70592,1.28041c-2.07611,-3.33076 -3.65491,-6.84615 -4.74314,-10.77483c2.83547,0.10362 5.18035,0.62047 7.63445,1.73427c2.74769,1.80151 5.44515,4.11989 8.01265,3.98315c5.67999,-0.30245 11.29462,-1.83924 16.93585,-2.90337c-0.00009,-0.03077 -0.04712,0.00887 0.21787,0.43399c1.7359,0.17023 3.20682,-0.08467 5.03877,-0.54979c1.07656,-0.63582 1.79207,-1.06143 2.50758,-1.48705c-0.84549,2.59841 -1.69097,5.19682 -2.89812,8.28322z" fill="#EBEDF0"/>
   <path stroke="null" id="svg_13" d="m187.11823,155.79084c12.43307,6.3003 24.53664,6.11691 37.22077,0.02915c1.10228,1.71718 1.7164,3.74098 1.51673,6.41229c-5.41881,1.32153 -10.02388,1.99556 -15.21353,2.5452c-8.00974,-0.98849 -15.43486,-1.85254 -22.86002,-2.71662c-4.2739,-1.27787 -3.44127,-3.50124 -0.66394,-6.27002z" fill="#D3D5D9"/>
   <path stroke="null" id="svg_14" d="m169.20145,261.62491c-13.39707,-0.11207 -26.11788,-0.31223 -38.83598,-0.62287c-0.29743,-0.00733 -0.56463,-1.2566 -1.35451,-3.1379c4.16786,-0.20516 7.81102,-0.50853 11.45648,-0.53927c8.85713,-0.0747 17.71703,-0.1172 26.57201,0.04147c2.35166,0.04212 7.20407,-0.84211 2.16199,4.25858z" fill="#D1DEF0"/>
   <path stroke="null" id="svg_15" d="m211.22679,164.90186c4.60505,-0.67401 9.21012,-1.34805 14.44626,-2.14495c-0.96132,7.14643 -5.80113,10.11474 -12.8725,10.1934c-8.20661,0.09127 -16.77833,1.81616 -22.76484,-5.92034c8.81113,0.16003 17.0899,0.84083 25.36867,1.52165c0.02308,-0.38753 0.04615,-0.77507 0.06923,-1.1626c-1.41561,-0.82905 -2.83122,-1.65811 -4.24682,-2.48716z" fill="#D9523C"/>
   <path stroke="null" id="svg_16" d="m214.06141,118.07583c3.26314,-0.66153 6.52627,-1.3231 10.41447,-1.91984c0.2346,1.82777 -0.15588,3.59066 -0.75038,5.8712c-11.23543,5.5569 -22.27123,5.73931 -33.90866,0.56366c-0.64535,-0.25991 -0.69387,-0.536 -0.38412,-1.64198c6.70388,-0.55425 13.0524,-0.05939 19.39314,-0.14496c1.75709,-0.02375 3.49102,-1.7714 5.23556,-2.72808z" fill="#6799CB"/>
   <path stroke="null" id="svg_17" d="m226.93481,139.30716c-1.01774,0.89097 -1.73325,1.31658 -2.88694,1.51006c-2.03431,0.03427 -3.63048,0.30064 -5.22664,0.56702c0,0 0.04703,-0.03964 -0.32023,-0.49524c-3.24481,-0.65854 -6.12234,-0.86149 -9.01561,-1.6615c-0.03351,-1.79007 -0.05135,-2.98306 -0.06915,-4.17609c0.7007,-0.03902 1.40138,-0.07803 2.89674,-0.23594c0.6211,-0.5035 0.44752,-0.88813 0.27392,-1.27275c4.2385,-1.59307 8.47701,-3.1861 13.25814,-4.78445c0.82579,3.35765 1.1089,6.72061 1.08976,10.54889z" fill="#D3D5D9"/>
   <path stroke="null" id="svg_18" d="m213.37353,118.00609c-1.05666,1.02642 -2.79059,2.77407 -4.54768,2.79782c-6.34073,0.08557 -12.68925,-0.4093 -19.4438,-0.27246c-1.39433,-1.2792 -2.37974,-2.97086 -3.43104,-5.16062c8.86761,0.52314 17.8011,1.54431 27.42251,2.63526z" fill="#5977AB"/>
   <path stroke="null" id="svg_19" d="m210.6422,164.77746c2.00019,0.95345 3.4158,1.7825 4.83141,2.61156c-0.02308,0.38753 -0.04615,0.77507 -0.06923,1.1626c-8.27877,-0.68082 -16.55754,-1.36162 -25.48762,-2.06635c-1.16294,-1.15961 -1.67461,-2.29532 -2.16044,-3.92769c7.45101,0.36736 14.87614,1.23141 22.88588,2.21988z" fill="#9A4953"/>
   <path stroke="null" id="svg_20" d="m193.81065,139.69864c-2.34491,-0.51686 -4.68979,-1.03371 -7.54344,-1.79656c-0.45911,-0.83564 -0.40952,-1.42527 -0.26009,-2.45218c1.28886,0.06449 2.47792,0.56625 4.32961,1.63604c1.59971,1.2496 2.53682,1.93115 3.47392,2.6127z" fill="#5977AB"/>
   <path stroke="null" id="svg_21" d="m202.21503,314.71678c0.29256,0.31449 0.46397,1.099 0.41271,2.12778c-0.32638,-0.38979 -0.43011,-1.02375 -0.41271,-2.12778z" fill="#F3F5F9"/>
   <path stroke="null" id="svg_22" d="m216.93564,322.01619c0.71086,0.55117 0.8924,1.08088 1.50617,1.74862c-4.10078,3.18733 -4.10078,3.18733 -7.14236,-2.15725c1.90254,0.14423 3.50472,0.26574 5.63619,0.40862z" fill="#F3F5F9"/>
   <path stroke="null" id="svg_23" d="m210.64151,314.18248c0.51242,0.66445 0.4398,1.31538 0.40676,2.45732c-1.36365,0.64329 -2.76686,0.79549 -4.17009,0.94767c1.05943,-1.13949 2.11885,-2.27905 3.76332,-3.40499z" fill="#F3F5F9"/>
   <path stroke="null" id="svg_24" d="m148.00088,327.06954c3.25197,7.67156 1.93691,12.7689 -3.70264,13.40563c-3.04564,0.34383 -7.43266,-1.14688 -9.27968,-3.40321c-1.50999,-1.84458 -1.30662,-6.82515 0.17562,-9.04799c3.03757,-4.55526 7.8147,-4.42004 12.8067,-0.95442z" fill="#014BAD"/>
   <path stroke="null" id="svg_25" d="m193.91985,140.29559c-1.04629,-1.2785 -1.9834,-1.96005 -3.14423,-2.97312c2.07811,-1.50678 4.37998,-2.682 7.45208,-3.43398c1.64146,0.73169 2.51272,1.04013 3.03958,1.74883c-1.51389,1.15496 -2.68338,1.90971 -3.85287,2.66443c0.98563,0.97158 1.82856,2.4833 2.98928,2.79166c1.87344,0.49766 3.95614,0.20301 6.41982,0.23682c1.20547,-0.50603 1.94155,-1.00585 2.67762,-1.50566c2.87755,0.20294 5.75508,0.40589 8.99998,1.0952c-5.27398,1.51973 -10.88861,3.05652 -16.5686,3.35897c-2.5675,0.13674 -5.26496,-2.18164 -8.01265,-3.98315z" fill="#B3B2C5"/>
   <path stroke="null" id="svg_26" d="m206.35411,141.3364c-1.99429,-0.03999 -4.07699,0.25467 -5.95043,-0.243c-1.16072,-0.30837 -2.00365,-1.82009 -2.98928,-2.79166c1.16949,-0.75471 2.33897,-1.50946 3.89282,-3.07141c0.41563,-1.07717 0.44693,-1.34712 0.4782,-1.61705c1.72837,0.34303 3.45674,0.68603 5.62416,1.77741c-0.05915,2.48082 -0.5573,4.21326 -1.05547,5.94571z" fill="#D3D5D9"/>
   <path stroke="null" id="svg_27" d="m206.8235,141.33022c0.02878,-1.72627 0.52694,-3.45872 1.08463,-5.73595c0.05949,-0.54478 0.78444,-0.53796 1.14625,-0.54041c0.37967,1.19057 0.39751,2.38356 0.43102,4.17365c-0.72035,1.09687 -1.45642,1.59668 -2.66189,2.10271z" fill="#E3E9F1"/>
   <path stroke="null" id="svg_28" d="m201.25175,133.57104c0.5024,0.31217 0.47109,0.58212 0.39987,1.25905c-0.91121,0.09853 -1.78247,-0.20992 -2.86026,-0.93876c0.50457,-0.4011 1.21565,-0.38181 2.46038,-0.32029z" fill="#E3E9F1"/>
   <path stroke="null" id="svg_29" d="m212.58711,133.86845c0.1734,0.05888 0.34697,0.44351 0.25037,0.90253c-0.27021,0.07443 -0.25021,-0.57678 -0.25037,-0.90253z" fill="#E3E9F1"/>
   <path stroke="null" id="svg_30" d="m219.08623,141.80935c1.33116,-0.6915 2.92733,-0.95786 4.60059,-0.78192c-1.39377,0.69724 -2.86469,0.95215 -4.60059,0.78192z" fill="#B3B2C5"/>
  </g>
 </g>
</svg>