<?xml version="1.0" encoding="UTF-8" standalone="no"?>
<!-- Created with Inkscape (http://www.inkscape.org/) -->

<svg
   xmlns:dc="http://purl.org/dc/elements/1.1/"
   xmlns:cc="http://creativecommons.org/ns#"
   xmlns:rdf="http://www.w3.org/1999/02/22-rdf-syntax-ns#"
   xmlns:svg="http://www.w3.org/2000/svg"
   xmlns="http://www.w3.org/2000/svg"
   xmlns:sodipodi="http://sodipodi.sourceforge.net/DTD/sodipodi-0.dtd"
   xmlns:inkscape="http://www.inkscape.org/namespaces/inkscape"
   id="svg3216"
   height="34.834"
   width="134.28"
   version="1.1"
   inkscape:version="0.48.4 r9939"
   sodipodi:docname="ACT.svg">
  <defs
     id="defs3277" />
  <sodipodi:namedview
     pagecolor="#ffffff"
     bordercolor="#666666"
     borderopacity="1"
     objecttolerance="10"
     gridtolerance="10"
     guidetolerance="10"
     inkscape:pageopacity="0"
     inkscape:pageshadow="2"
     inkscape:window-width="1920"
     inkscape:window-height="1005"
     id="namedview3275"
     showgrid="false"
     inkscape:snap-page="true"
     inkscape:snap-bbox="true"
     inkscape:bbox-nodes="true"
     inkscape:zoom="5.4959786"
     inkscape:cx="101.40377"
     inkscape:cy="-12.251007"
     inkscape:window-x="-9"
     inkscape:window-y="-9"
     inkscape:window-maximized="1"
     inkscape:current-layer="svg3216" />
  <title
     id="title3267">ACT Logo</title>
  <metadata
     id="metadata3221">
    <rdf:RDF>
      <cc:Work
         rdf:about="">
        <dc:format>image/svg+xml</dc:format>
        <dc:type
           rdf:resource="http://purl.org/dc/dcmitype/StillImage" />
        <dc:title>ACT Logo</dc:title>
      </cc:Work>
    </rdf:RDF>
  </metadata>
  <g
     transform="matrix(0.55542801,0,0,0.55542801,-126.57683,-260.81554)"
     id="g3218">
    <g
       id="g3296">
      <path
         inkscape:connector-curvature="0"
         d="m 379.07574,511.08631 c -2.414,2.89913 -6.48963,7.56638 -10.161,9.886 -4.61713,2.901 -10.91476,4.645 -17.63238,4.645 -18.782,0 -24.4505,-12.35237 -24.4505,-24.37425 0,-12.602 5.56288,-25.8635 22.146,-25.8635 2.72562,0 9.33475,0.0816 15.11162,4.888 5.35088,4.22713 6.0855,9.12013 6.61013,12.18538 l 8.37612,-0.0274 0,-20.91713 -8.45375,0 -1.70725,3.53675 c -3.56887,-1.90738 -10.182,-5.46938 -22.4605,-5.46938 -23.29674,0 -40.60937,14.34325 -40.60937,32.49575 0,15.99988 13.22213,25.286 27.18113,28.602 4.71962,1.16075 9.86437,1.79375 14.89962,1.575 17.20025,-0.74962 24.73612,-5.43537 31.15012,-10.79112"
         style="fill:#231f20;fill-opacity:1;fill-rule:nonzero;stroke:none"
         id="path3161" />
      <path
         inkscape:connector-curvature="0"
         d="m 381.18824,471.50844 0,20.91712 6.21887,-0.1185 c 0.31363,-2.902 0.70488,-9.55062 2.90988,-11.95475 2.83225,-2.9865 6.18899,-2.9865 9.75887,-2.9865 l 8.81313,0 0,40.29138 c 0,2.15825 -0.1055,5.13887 -4.198,6.21612 -1.47038,0.3325 -2.205,0.3325 -7.34475,0.3325 l 0,5.8845 43.86575,0 0,-5.8845 c -4.51176,0 -5.35088,0 -6.71576,-0.24887 -5.03625,-0.91288 -5.03625,-4.38938 -5.03625,-6.54863 l 0,-40.0425 8.91676,0 c 2.72962,0 5.98487,0 8.39699,1.49313 3.46538,2.24 3.775,9.8025 4.19601,13.44812 l 6.222,0.1185 0,-20.91712"
         style="fill:#231f20;fill-opacity:1;fill-rule:nonzero;stroke:none"
         id="path3163" />
      <path
         inkscape:connector-curvature="0"
         d="m 240.69011,516.41281 c -3.98587,6.96463 -6.19087,7.4605 -12.7995,7.793 l 0,5.8845 29.59263,0 0,-5.8845 c -4.30075,0 -5.13975,0 -6.29563,-0.3325 -1.785,-0.41225 -2.415,-1.40962 -2.415,-2.73675 0,-0.90987 0.315,-1.73812 0.84013,-2.5665 l 17.88975,-34.42337 15.06275,34.25712 c 0.42,0.99463 0.735,1.90938 0.735,2.89713 0,2.82225 -3.35988,2.90487 -5.45975,2.90487 l -3.24988,0 0,5.8845 43.1305,0 0,-5.8845 c -7.55487,0 -10.181,-1.16175 -14.167,-8.1235 l -22.14375,-44.5195 -15.95325,0"
         style="fill:#231f20;fill-opacity:1;fill-rule:evenodd;stroke:none"
         id="path3165" />
      <path
         inkscape:connector-curvature="0"
         d="m 285.57899,503.43344 c 0.37525,-0.1575 1.18987,0.13425 1.45437,0.32575 0.1215,0.346 -0.48412,0.30125 -0.75825,0.52012 0.0621,0.3295 -0.037,0.18075 0.0747,0.21675 0.57163,-0.068 2.6765,0.48313 3.87213,1.186 0.0487,0.42588 0.30925,0.30625 0.47837,0.36175 -0.11287,-0.037 -0.40837,0.033 -0.48225,0.11275 l 0.24313,0.3325 c 0.1935,-0.44725 0.53662,0.26825 0.72325,0.2255 -1.64488,0.89538 -3.03125,0.95363 -4.86863,0.86325 -0.2975,0.002 -0.95862,0.37625 -1.46987,0.0788 -0.88663,0.32363 -1.25413,0.14875 -2.16988,0.25963 -6.90237,0.90987 -13.24787,2.56362 -20.23087,4.96675 -2.67738,0.91587 -5.4285,2.92525 -8.171,3.17612 -0.63488,-0.0156 -1.7625,-0.83712 -1.716,-2.04462 0.0779,-2.14638 1.01112,-3.80988 4.88225,-6.57375 1.97262,-1.25113 4.25425,-2.29238 6.5505,-3.17888 5.32162,-1.432 10.52275,-2.521 16.00575,-1.74312 1.6935,-0.46863 2.796,-0.13225 4.36312,0.489 1.19388,0.006 0.67088,0.22062 1.21913,0.42575"
         style="fill:#ef3d42;fill-opacity:1;fill-rule:nonzero;stroke:none"
         id="path3167" />
      <path
         inkscape:connector-curvature="0"
         d="m 464.18211,475.73931 0,-1.64012 1.094,0 c 0.5585,0 1.15475,0.12162 1.15475,0.77687 0,0.81563 -0.60625,0.86325 -1.28813,0.86325 l -0.96062,0 z m 0,0.6815 0.92475,0 1.39862,2.29238 0.894,0 -1.50412,-2.32838 c 0.77737,-0.0981 1.37075,-0.51225 1.37075,-1.46012 0,-1.04413 -0.61713,-1.50688 -1.8695,-1.50688 l -2.01988,0 0,5.29538 0.80538,0 0,-2.29238 z m -2.7715,-0.3645 c 0,-2.17575 1.6395,-3.81675 3.743,-3.81675 2.07475,0 3.71825,1.641 3.71825,3.81675 0,2.20875 -1.6435,3.83513 -3.71825,3.83513 -2.1035,0 -3.743,-1.62638 -3.743,-3.83513 z m 3.743,4.60213 c 2.49875,0 4.64313,-1.94525 4.64313,-4.60213 0,-2.6385 -2.14438,-4.58287 -4.64313,-4.58287 -2.5295,0 -4.66988,1.94437 -4.66988,4.58287 0,2.65688 2.14038,4.60213 4.66988,4.60213"
         style="fill:#231f20;fill-opacity:1;fill-rule:evenodd;stroke:none"
         id="path3169" />
    </g>
  </g>
</svg>
