<svg xmlns="http://www.w3.org/2000/svg" xmlns:xlink="http://www.w3.org/1999/xlink" width="496" height="850" viewBox="0 0 496 850" fill="none"><g opacity="1" transform="translate(0 0)  rotate(0 248 425)"><path id="圆形 1" fill-rule="evenodd" style="fill:#FFFFFF" transform="translate(0 0)  rotate(0 133 133)" opacity="0" d="M133,0C59.55,0 0,59.55 0,133C0,206.45 59.55,266 133,266C206.45,266 266,206.45 266,133C266,59.55 206.45,0 133,0Z " /><path  id="圆形 1" style="stroke:#103C74; stroke-width:1; stroke-opacity:0.65; stroke-dasharray:0 0" transform="translate(0 0)  rotate(0 133 133)" d="M133,0C59.55,0 0,59.55 0,133C0,206.45 59.55,266 133,266C206.45,266 266,206.45 266,133C266,59.55 206.45,0 133,0Z " /><path id="矩形 1" fill-rule="evenodd" style="fill:#CCCCCC" transform="translate(132 186)  rotate(0 95 136.5)" opacity="0" d="M0,273L190,273L190,0L0,0L0,273Z " /><rect  id="矩形 1" style="stroke:#83050E; stroke-width:1; stroke-opacity:0.65; stroke-dasharray:0 0" transform="translate(132 186)  rotate(0 95 136.5)" x="0.5" y="0.5" rx="0"  width="189" height="272" /><path id="矩形 2" fill-rule="evenodd" style="fill:#83050E" transform="translate(342 720)  rotate(0 65 65)" opacity="0.65" d="M0,130L130,130L130,0L0,0L0,130Z " /><path id="三角形 1" fill-rule="evenodd" style="fill:#CCCCCC" transform="translate(276 601)  rotate(0 70.5 124.5)" opacity="0" d="M9.45,186.75L131.55,186.75L70.5,0L9.45,186.75Z " /><path  id="三角形 1" style="stroke:#103C74; stroke-width:1; stroke-opacity:0.65; stroke-dasharray:0 0" transform="translate(276 601)  rotate(0 70.5 124.5)" d="M9.45,186.75L131.55,186.75L70.5,0L9.45,186.75Z " /><path id="圆形 2" fill-rule="evenodd" style="fill:#103C74" transform="translate(448 435)  rotate(0 24 24)" opacity="0.65" d="M24,0C10.75,0 0,10.75 0,24C0,37.25 10.75,48 24,48C37.25,48 48,37.25 48,24C48,10.75 37.25,0 24,0Z " /><path id="矩形 1" fill-rule="evenodd" style="fill:#103C74" transform="translate(53 535)  rotate(0 33 33)" opacity="0.65" d="M0,66L66,66L66,0L0,0L0,66Z " /></g></svg>